<?xml version="1.0" encoding="UTF-8" standalone="no"?>
<svg version="1.1" xmlns="http://www.w3.org/2000/svg" xmlns:xlink="http://www.w3.org/1999/xlink" xmlns:sketch="http://www.bohemiancoding.com/sketch/ns">
    <!-- Generator: Sketch 3.0.3 (7891) - http://www.bohemiancoding.com/sketch -->
    <title>android</title>
    <desc>Created with Sketch.</desc>
    <defs>
        <path id="path-1" d="M0.103739535,0.0885405405 L6.76938605,6.70108108 L8.85714419,4.6287027 L0.719311628,0.189945946 C0.561413953,0.104054054 0.411906977,0.0631891892 0.278037209,0.0631891892 C0.216251163,0.0631891892 0.157897674,0.0718918919 0.103739535,0.0885405405"></path>
        <linearGradient x1="55.7009058%" y1="77.209614%" x2="35.7613258%" y2="-18.9950567%" id="linearGradient-3">
            <stop stop-color="#D6FFA1" offset="0%"></stop>
            <stop stop-color="#9AE5A7" offset="29.59%"></stop>
            <stop stop-color="#05A5B5" offset="97.64%"></stop>
            <stop stop-color="#00A3B5" offset="100%"></stop>
        </linearGradient>
        <path id="path-4" d="M-0.0957302326,2.16054054 L2.00308837,4.24275676 L4.7807907,2.72697297 C5.34411163,2.41897297 5.34411163,1.91686486 4.7807907,1.60962162 L1.9924093,0.0881621622 L-0.0957302326,2.16054054 L-0.0957302326,2.16054054 Z"></path>
        <linearGradient x1="1.69406402%" y1="-33.9484185%" x2="67.2459372%" y2="80.0092209%" id="linearGradient-6">
            <stop stop-color="#FF177B" offset="0%"></stop>
            <stop stop-color="#FF197B" offset="0.81%"></stop>
            <stop stop-color="#FFAF75" offset="69.96%"></stop>
            <stop stop-color="#FFEC73" offset="100%"></stop>
        </linearGradient>
        <path id="path-7" d="M0.0770418605,0.790054054 L0.0781860465,12.6272432 C0.0781860465,12.9991892 0.233795349,13.244 0.474074419,13.3261081 L7.1507814,6.70221622 L0.484753488,0.0885405405 C0.237227907,0.16572973 0.0770418605,0.414324324 0.0770418605,0.790054054"></path>
        <linearGradient x1="55.9059611%" y1="68.5295088%" x2="29.3323378%" y2="-14.2982138%" id="linearGradient-9">
            <stop stop-color="#63FFD4" offset="0%"></stop>
            <stop stop-color="#32A0BA" offset="48.42%"></stop>
            <stop stop-color="#1262A9" offset="83.45%"></stop>
            <stop stop-color="#064AA2" offset="100%"></stop>
        </linearGradient>
        <path id="path-10" d="M0.0926790698,6.5152973 C0.265832558,6.57356757 0.483227907,6.54632432 0.719311628,6.41767568 L8.86706047,1.97248649 L6.76938605,-0.108594595 L0.0926790698,6.5152973 L0.0926790698,6.5152973 Z"></path>
        <linearGradient x1="107.585338%" y1="40.5974517%" x2="-10.3527651%" y2="59.4002863%" id="linearGradient-12">
            <stop stop-color="#FF4521" offset="0%"></stop>
            <stop stop-color="#D43E66" offset="34.72%"></stop>
            <stop stop-color="#9F36BA" offset="79.52%"></stop>
            <stop stop-color="#8A33DB" offset="100%"></stop>
        </linearGradient>
    </defs>
    <g id="Page-1" stroke="none" stroke-width="1" fill="none" fill-rule="evenodd" sketch:type="MSPage">
        <g id="android" sketch:type="MSLayerGroup">
            <path d="M94.7144186,27.8516757 L5.49813953,27.8516757 C2.46186047,27.8512973 0,25.8474054 0,23.3762162 L0,4.47432432 C0,2.00313514 2.46186047,0 5.49813953,0 L94.7139535,0 C97.7488372,0 99.98,2.00351351 99.98,4.47432432 L99.98,23.8446486 C99.9804651,26.3154595 97.7493023,27.8516757 94.7144186,27.8516757 Z" id="Shape" fill="#4D4D4D" sketch:type="MSShapeGroup"></path>
            <g id="Clipped" transform="translate(12.813953, 10.972973)">
                <mask id="mask-2" sketch:name="SVGID_3_" fill="white">
                    <use xlink:href="#path-1"></use>
                </mask>
                <g id="SVGID_3_"></g>
                <path d="M0.543869767,8.59940541 L-1.35853023,0.397297297 L8.41701395,-1.83475676 L10.319414,6.36735135 L0.543869767,8.59940541 Z" id="Shape" fill="url(#linearGradient-3)" sketch:type="MSShapeGroup" mask="url(#mask-2)"></path>
            </g>
            <g id="Clipped" transform="translate(19.679070, 15.513514)">
                <mask id="mask-5" sketch:name="SVGID_6_" fill="white">
                    <use xlink:href="#path-4"></use>
                </mask>
                <g id="SVGID_6_"></g>
                <path d="M3.95545116,-2.26497297 L7.16985116,3.18178378 L1.29331163,6.59589189 L-1.92146977,1.14875676 L3.95545116,-2.26497297 Z" id="Shape" fill="url(#linearGradient-6)" sketch:type="MSShapeGroup" mask="url(#mask-5)"></path>
            </g>
            <g id="Clipped" transform="translate(12.432558, 10.972973)">
                <mask id="mask-8" sketch:name="SVGID_9_" fill="white">
                    <use xlink:href="#path-7"></use>
                </mask>
                <g id="SVGID_9_"></g>
                <path d="M0.522511628,15.0303243 L-3.16329302,0.922108108 L6.70569302,-1.61567568 L10.3911163,12.4929189 L0.522511628,15.0303243 Z" id="Shape" fill="url(#linearGradient-9)" sketch:type="MSShapeGroup" mask="url(#mask-8)"></path>
            </g>
            <g id="Clipped" transform="translate(12.813953, 17.783784)">
                <mask id="mask-11" sketch:name="SVGID_12_" fill="white">
                    <use xlink:href="#path-10"></use>
                </mask>
                <g id="SVGID_12_"></g>
                <path d="M9.77287442,6.45059459 L0.254390698,7.74427027 L-0.813134884,0.0143783784 L8.70534884,-1.2792973 L9.77287442,6.45059459 Z" id="Shape" fill="url(#linearGradient-12)" sketch:type="MSShapeGroup" mask="url(#mask-11)"></path>
            </g>
            <path d="M65.0273581,19.9916216 L64.411786,20.5675135 C64.269907,20.6450811 64.1284093,20.7351351 63.987293,20.7990811 C63.5597488,20.9916757 63.1249581,21.0401081 62.7386047,21.0401081 C62.3274605,21.0401081 61.6829023,21.014 61.0257581,20.5421622 C60.1119349,19.9034595 59.7129953,18.8065405 59.7129953,17.8503784 C59.7129953,15.8707027 61.3373581,14.8997838 62.6619442,14.8997838 C63.1253395,14.8997838 63.6009395,15.0148108 63.9876744,15.2573514 C64.630707,15.6788649 64.7969953,16.2271351 64.889293,16.5211351 L61.8633023,17.7338378 L60.8724372,17.8106486 C61.1931907,19.4331351 62.3,20.3771892 63.5231349,20.3771892 C64.1341302,20.3771892 64.5876093,20.1796757 65.0037116,19.9753514 C65.0037116,19.9757297 65.0872372,19.9325946 65.0273581,19.9916216 L65.0273581,19.9916216 Z M63.202,16.7629189 C63.4483814,16.6743784 63.5757674,16.5979459 63.5757674,16.4201081 C63.5757674,15.9100541 62.9937581,15.3212973 62.2996186,15.3212973 C61.7851163,15.3212973 60.820186,15.7185946 60.820186,17.0977838 C60.820186,17.3130811 60.8457395,17.5427568 60.8590884,17.7716757 L63.202,16.7629189 Z M58.7011535,19.8924865 C58.7011535,20.3889189 58.7904,20.4661081 59.2133674,20.5047027 C59.433814,20.5308108 59.6534977,20.5421622 59.8712744,20.5675135 L59.395293,20.8486486 L57.1271349,20.8486486 C57.4246233,20.4657297 57.4757302,20.4278919 57.4757302,20.1724865 L57.4757302,19.8875676 L57.4707721,12.2961622 L56.4696093,12.2961622 L57.433014,11.8352973 L59.2736279,11.8352973 C58.8746884,12.0645946 58.755693,12.2042162 58.7042047,12.6507027 L58.7011535,19.8924865 Z M55.1839256,15.5263784 C55.4791256,15.7674054 56.0966047,16.2785946 56.0966047,17.2491351 C56.0966047,18.1947027 55.5588372,18.6404324 55.0168744,19.0623243 C54.850586,19.2280541 54.6564558,19.4085405 54.6564558,19.687027 C54.6564558,19.9692973 54.8509674,20.1225405 54.9909395,20.2368108 L55.4558605,20.5928649 C56.0210884,21.0662162 56.5363535,21.5002162 56.5363535,22.3818378 C56.5363535,23.5831892 55.364707,24.794 53.150707,24.794 C51.2856837,24.794 50.3840651,23.9131351 50.3840651,22.9683243 C50.3840651,22.5082162 50.6144279,21.857027 51.3760744,21.4112973 C52.1739535,20.9273514 53.2552093,20.8626486 53.833786,20.8251892 C53.6530047,20.5932432 53.4466698,20.3507027 53.4466698,19.9549189 C53.4466698,19.7384865 53.5122698,19.6094595 53.5755814,19.4573514 C53.4348465,19.4705946 53.2929674,19.4842162 53.1640558,19.4842162 C51.7990419,19.4842162 51.0267163,18.4739459 51.0267163,17.4780541 C51.0267163,16.8908108 51.297507,16.2396216 51.8516744,15.7674054 C52.5854791,15.1680541 53.4604,15.0647568 54.1556837,15.0647568 L56.807907,15.0647568 L55.9833302,15.5267568 L55.1839256,15.5267568 L55.1839256,15.5263784 Z M54.2716279,21.1948649 C54.1663628,21.1812432 54.1030512,21.1812432 53.9756651,21.1812432 C53.8589581,21.1812432 53.1636744,21.2062162 52.6251442,21.3855676 C52.3402419,21.4888649 51.5168093,21.7942162 51.5168093,22.7019459 C51.5168093,23.6066486 52.4058419,24.258973 53.7815349,24.258973 C55.0168744,24.258973 55.6732558,23.6713514 55.6732558,22.8801622 C55.6728744,22.2293514 55.2483814,21.8854054 54.2716279,21.1948649 L54.2716279,21.1948649 Z M54.6419628,18.7687027 C54.9394512,18.4743243 54.965386,18.0671892 54.965386,17.8356216 C54.965386,16.9172973 54.413507,15.487027 53.343693,15.487027 C53.0099721,15.487027 52.6487907,15.6531351 52.4432186,15.9100541 C52.2258233,16.1760541 52.1606047,16.5215135 52.1606047,16.8533514 C52.1606047,17.7081081 52.6629023,19.1262703 53.7689488,19.1262703 C54.0912279,19.1262703 54.4382977,18.9707568 54.6419628,18.7687027 L54.6419628,18.7687027 Z M47.2043721,21.014 C45.1585674,21.014 44.0639628,19.4331351 44.0639628,18.0024865 C44.0639628,16.3308108 45.4400372,14.8997838 47.3973581,14.8997838 C49.2894605,14.8997838 50.4744558,16.3694054 50.4744558,17.9124324 C50.4744558,19.4191351 49.3031907,21.014 47.2043721,21.014 M48.8138605,19.981027 C49.1250791,19.5723784 49.2005953,19.0623243 49.2005953,18.5651351 C49.2005953,17.4405946 48.6605395,15.2959459 47.0644,15.2959459 C46.639907,15.2959459 46.2123628,15.4605405 45.9041953,15.7295676 C45.4015163,16.1764324 45.3118884,16.7375676 45.3118884,17.2884865 C45.3118884,18.55 45.9404279,20.6307027 47.5003349,20.6307027 C48.0037767,20.6303243 48.5175163,20.3889189 48.8138605,19.981027 M40.354893,21.014 C38.308707,21.014 37.2160093,19.4331351 37.2160093,18.0024865 C37.2160093,16.3308108 38.5924651,14.8997838 40.5490233,14.8997838 C42.4399814,14.8997838 43.6238326,16.3694054 43.6238326,17.9124324 C43.6238326,19.4191351 42.454093,21.014 40.354893,21.014 M41.9647628,19.981027 C42.273693,19.5723784 42.3507349,19.0623243 42.3507349,18.5651351 C42.3507349,17.4405946 41.8091535,15.2959459 40.2145395,15.2959459 C39.7885209,15.2959459 39.3659349,15.4605405 39.0566233,15.7295676 C38.5531814,16.1764324 38.4639349,16.7375676 38.4639349,17.2884865 C38.4639349,18.55 39.0951442,20.6307027 40.6523814,20.6307027 C41.1546791,20.6303243 41.6676558,20.3889189 41.9647628,19.981027 M36.3979163,20.5709189 L34.6724837,20.9625405 C33.973386,21.0718919 33.3456093,21.1683784 32.6808372,21.1683784 C29.3524,21.1683784 28.0846419,18.7376757 28.0846419,16.8359459 C28.0846419,14.5127027 29.8813953,12.3593514 32.9581116,12.3593514 C33.6095349,12.3593514 34.235786,12.4543243 34.8063535,12.6083243 C35.7106419,12.8607027 36.1336093,13.170973 36.3979163,13.3533514 L35.3956093,14.2977838 L34.9730233,14.3916216 L35.2743256,13.9148649 C34.8658512,13.5194595 34.1160279,12.7899459 32.6922791,12.7899459 C30.7887349,12.7899459 29.3524,14.2251351 29.3524,16.3213514 C29.3524,18.5723243 30.9924,20.6897297 33.6221209,20.6897297 C34.3948279,20.6897297 34.7926233,20.5357297 35.1534233,20.3919459 L35.1534233,18.4622162 L33.3318791,18.5594595 L34.2975721,18.0448649 L36.8540651,18.0448649 L36.5417023,18.3434054 C36.4570326,18.4145405 36.4459721,18.4387568 36.4223256,18.5341081 C36.4093581,18.6430811 36.3979163,18.9896757 36.3979163,19.1115135 L36.3979163,20.5709189 L36.3979163,20.5709189 Z M68.7375721,20.0461081 L68.7375721,23.2986486 L68.0865302,23.2986486 L68.0865302,15.0235135 L68.7375721,15.0235135 L68.7375721,15.9652973 C69.1613023,15.3564865 69.9366791,14.8732973 70.8367721,14.8732973 C72.4508372,14.8732973 73.5385767,16.0882703 73.5385767,18.0115676 C73.5385767,19.922 72.4508372,21.1623243 70.8367721,21.1623243 C69.9866419,21.1623243 69.2257581,20.7275676 68.7375721,20.0461081 M72.8390977,18.0115676 C72.8390977,16.562 72.0774512,15.4563784 70.7269302,15.4563784 C69.8882419,15.4563784 69.0861674,16.1105946 68.7375721,16.6804324 L68.7375721,19.3294595 C69.0861674,19.9008108 69.8882419,20.5784865 70.7269302,20.5784865 C72.0774512,20.5784865 72.8390977,19.463027 72.8390977,18.0115676 Z M74.6,12.8648649 L74.6,21.1403784 L75.2506605,21.1403784 L75.2506605,12.8648649 L74.6,12.8648649 Z M82.3835163,22.7632432 C82.5223442,22.8245405 82.7599535,22.8627568 82.910986,22.8627568 C83.3091628,22.8627568 83.5864372,22.7011892 83.8354884,22.1302162 L84.3103256,21.0631892 L81.7454419,15.0227568 L82.472,15.0227568 L84.6718884,20.2572432 L86.8504186,15.0227568 L87.586893,15.0227568 L84.4594512,22.3303784 C84.1345023,23.0833514 83.6241953,23.4454595 82.9224279,23.4454595 C82.7118977,23.4454595 82.4346233,23.408 82.2717674,23.3588108 L82.3835163,22.7632432 Z M80.4818791,20.9950811 C80.4384,20.7873514 80.4056,20.6045946 80.3815721,20.4513514 C80.3613581,20.2988649 80.3502977,20.142973 80.3502977,19.9844324 C80.1268,20.3094595 79.8106233,20.58 79.4067256,20.7934054 C79.0024465,21.0075676 78.6187628,21.1131351 78.0916744,21.1131351 C77.457414,21.1131351 76.965414,20.9587568 76.6137674,20.6443243 C76.2636465,20.3306486 76.0874419,19.9057297 76.0874419,19.3680541 C76.0874419,18.8311351 76.3425953,18.3952432 76.8513767,18.0618919 C77.3601581,17.727027 78.0180651,17.5609189 78.8315814,17.5609189 L80.3499163,17.5609189 L80.3499163,16.8162703 C80.3499163,16.3875676 80.2023163,16.0508108 79.9086419,15.806 C79.6134419,15.5615676 79.1992465,15.4374595 78.6618605,15.4374595 C78.1710047,15.4374595 77.7728279,15.550973 77.4696186,15.7711892 C77.1690791,15.9955676 77.0176651,16.2740541 77.0176651,16.6096757 L76.3517488,16.6096757 L76.3376372,16.5775135 C76.3136093,16.1253514 76.5222326,15.7280541 76.9657953,15.3856216 C77.4070698,15.0431892 77.9860279,14.871027 78.698093,14.871027 C79.4074884,14.871027 79.9818698,15.0405405 80.4151349,15.3788108 C80.8476372,15.7136757 81.0646512,16.1976216 81.0646512,16.8302703 L81.0646512,19.7857838 C81.0646512,19.9980541 81.0745674,20.2031351 81.1016465,20.4029189 C81.129107,20.6030811 81.1729674,20.8028649 81.2313209,20.9958378 L80.4818791,20.9958378 L80.4818791,20.9950811 Z M78.171386,20.5247568 C78.7244093,20.5247568 79.1218233,20.4021622 79.5283907,20.1596216 C79.931907,19.9182162 80.2061302,19.6037838 80.3502977,19.2235135 L80.3502977,18.0732432 L78.8247163,18.0732432 C78.2419442,18.0732432 77.7594791,18.2007568 77.3799907,18.4591892 C76.9997395,18.7164865 76.8067535,19.0278919 76.8067535,19.39 C76.8067535,19.7312973 76.9288,20.0048649 77.1717488,20.2118378 C77.4150791,20.4214595 77.7476558,20.5247568 78.171386,20.5247568 L78.171386,20.5247568 Z" id="Shape" fill="#FFFFFF" sketch:type="MSShapeGroup"></path>
            <path d="M28.3409395,4.12016216 C28.6212651,3.93854054 28.9755814,3.81140541 29.4275349,3.81140541 C30.1418884,3.81140541 30.6361767,4.1807027 30.6361767,4.81032432 C30.6361767,5.31318919 30.2639349,5.70102703 29.7875721,5.81 L29.7875721,5.82210811 C30.3615721,5.88264865 30.7887349,6.258 30.7952186,6.84562162 C30.7952186,7.69318919 30.0499721,8.03259459 29.299386,8.03259459 C28.9267628,8.03259459 28.5419349,7.95389189 28.224614,7.76621622 L28.3653488,7.35454054 C28.5911349,7.48167568 28.9515535,7.60275676 29.2929023,7.60275676 C29.897414,7.60275676 30.2334233,7.27545946 30.2334233,6.82745946 C30.2334233,6.21562162 29.6411163,6.04005405 29.1159349,6.04005405 L28.8722233,6.04005405 L28.8722233,5.64048649 L29.110214,5.64048649 C29.6533209,5.64048649 30.0808651,5.30751351 30.0808651,4.88940541 C30.0808651,4.47167568 29.7814698,4.24124324 29.3421023,4.24124324 C29.0244,4.24124324 28.7070791,4.36837838 28.481293,4.50762162 L28.3409395,4.12016216 L28.3409395,4.12016216 Z M32.3192744,6.68178378 L31.8921116,7.966 L31.3429023,7.966 L32.7468186,3.88367568 L33.3814605,3.88367568 L34.7857581,7.966 L34.2182419,7.966 L33.778493,6.68178378 L32.3192744,6.68178378 L32.3192744,6.68178378 Z M33.6747535,6.27010811 L33.2658977,5.09524324 C33.1743628,4.82848649 33.1129581,4.58632432 33.0519349,4.35021622 L33.0397302,4.35021622 C32.978707,4.58632432 32.9180651,4.84059459 32.8322512,5.08881081 L32.4291163,6.27010811 L33.6747535,6.27010811 L33.6747535,6.27010811 Z M37.7270791,3.88405405 L37.7270791,4.326 L36.072586,4.326 L36.072586,7.966 L35.5352,7.966 L35.5352,3.88405405 L37.7270791,3.88405405 Z M38.3361674,3.93248649 C38.5924651,3.89010811 38.9284744,3.85378378 39.3556372,3.85378378 C39.8808186,3.85378378 40.2652651,3.97486486 40.5097395,4.19281081 C40.7294233,4.38654054 40.8697767,4.68318919 40.8697767,5.04681081 C40.8697767,5.41648649 40.7599349,5.7067027 40.5520744,5.91897297 C40.2652651,6.21562162 39.8133116,6.36697297 39.294614,6.36697297 C39.1359535,6.36697297 38.9891163,6.36091892 38.8674512,6.33102703 L38.8674512,7.966 L38.3361674,7.966 L38.3361674,3.93248649 L38.3361674,3.93248649 Z M38.8678326,5.90081081 C38.9837767,5.93108108 39.1298512,5.94318919 39.3072,5.94318919 C39.9483256,5.94318919 40.3388744,5.628 40.3388744,5.07708108 C40.3388744,4.53221622 39.9483256,4.27151351 39.3682233,4.27151351 C39.1363349,4.27151351 38.9593674,4.28967568 38.8678326,4.31389189 L38.8678326,5.90081081 L38.8678326,5.90081081 Z M41.814493,3.88405405 L42.6329674,5.63443243 C42.7363256,5.87659459 42.8343442,6.1127027 42.9258791,6.34918919 L42.944186,6.34918919 C43.0170326,6.14297297 43.0963628,5.90686486 43.1943814,5.61589189 L43.8412279,3.88405405 L44.4030233,3.88405405 L43.536493,5.99162162 C43.3168093,6.53686486 43.0601302,7.16043243 42.7668372,7.53578378 C42.5048186,7.86913514 42.2050419,8.03864865 41.8389023,8.03864865 C41.6985488,8.03864865 41.607014,8.02654054 41.5398884,8.00232432 L41.588707,7.57248649 C41.6375256,7.58421622 41.6985488,7.59064865 41.7904651,7.59064865 C42.2115256,7.59064865 42.4617209,7.18502703 42.5959721,6.89405405 C42.6386884,6.80324324 42.6264837,6.7427027 42.5776651,6.64583784 L41.2103628,3.88405405 L41.814493,3.88405405 L41.814493,3.88405405 Z M44.9026512,4.12016216 C45.1829767,3.93854054 45.537293,3.81140541 45.9892465,3.81140541 C46.7036,3.81140541 47.1978884,4.1807027 47.1978884,4.81032432 C47.1978884,5.31318919 46.8256465,5.70102703 46.3492837,5.81 L46.3492837,5.82210811 C46.9232837,5.88264865 47.3504465,6.258 47.3569302,6.84562162 C47.3569302,7.69318919 46.6120651,8.03259459 45.8610977,8.03259459 C45.4884744,8.03259459 45.1036465,7.95389189 44.7863256,7.76621622 L44.9270605,7.35454054 C45.1528465,7.48167568 45.5132651,7.60275676 45.854614,7.60275676 C46.4591256,7.60275676 46.7951349,7.27545946 46.7951349,6.82745946 C46.7951349,6.21562162 46.2028279,6.04005405 45.6776465,6.04005405 L45.4339349,6.04005405 L45.4339349,5.64048649 L45.6719256,5.64048649 C46.2150326,5.64048649 46.6425767,5.30751351 46.6425767,4.88940541 C46.6425767,4.47167568 46.3431814,4.24124324 45.903814,4.24124324 C45.5861116,4.24124324 45.2687907,4.36837838 45.0430047,4.50762162 L44.9026512,4.12016216 L44.9026512,4.12016216 Z M48.7166047,3.88405405 L48.7166047,5.60416216 C48.7166047,6.24589189 48.7044,6.78508108 48.667786,7.32994595 L48.686093,7.336 C48.8874698,6.91221622 49.1437674,6.47027027 49.4427814,5.98556757 L50.7738512,3.88405405 L51.3051349,3.88405405 L51.3051349,7.966 L50.8047442,7.966 L50.8047442,6.22772973 C50.8047442,5.56745946 50.8112279,5.08313514 50.8535628,4.56854054 L50.8352558,4.56210811 C50.6338791,5.01048649 50.3527907,5.48308108 50.0720837,5.93108108 L48.784493,7.966 L48.2169767,7.966 L48.2169767,3.88405405 L48.7166047,3.88405405 L48.7166047,3.88405405 Z M53.1652,4.33205405 L51.9138419,4.33205405 L51.9138419,3.88405405 L54.9600465,3.88405405 L54.9600465,4.33205405 L53.7022047,4.33205405 L53.7022047,7.966 L53.1652,7.966 L53.1652,4.33205405 Z M57.6938884,6.05216216 L56.1004186,6.05216216 L56.1004186,7.52367568 L57.8830605,7.52367568 L57.8830605,7.966 L55.5630326,7.966 L55.5630326,3.88405405 L57.7915256,3.88405405 L57.7915256,4.326 L56.1004186,4.326 L56.1004186,5.61589189 L57.6938884,5.61589189 L57.6938884,6.05216216 Z M60.9818977,3.88405405 L60.9818977,5.59205405 L62.9720186,5.59205405 L62.9720186,3.88405405 L63.5090233,3.88405405 L63.5090233,7.966 L62.9720186,7.966 L62.9720186,6.05216216 L60.9818977,6.05216216 L60.9818977,7.966 L60.4445116,7.966 L60.4445116,3.88405405 L60.9818977,3.88405405 Z M65.2474233,6.68178378 L64.8202605,7.966 L64.2710512,7.966 L65.6753488,3.88367568 L66.3099907,3.88367568 L67.7142884,7.966 L67.1467721,7.966 L66.707786,6.68178378 L65.2474233,6.68178378 L65.2474233,6.68178378 Z M66.6025209,6.27010811 L66.1936651,5.09524324 C66.1025116,4.82848649 66.041107,4.58632432 65.9797023,4.35021622 L65.9674977,4.35021622 C65.9064744,4.58632432 65.8458326,4.84059459 65.7600186,5.08881081 L65.3568837,6.27010811 L66.6025209,6.27010811 L66.6025209,6.27010811 Z" id="Shape" fill="#FFFFFF" sketch:type="MSShapeGroup"></path>
        </g>
    </g>
</svg>