<?xml version="1.0" encoding="UTF-8" standalone="no"?>
<svg viewBox="0 0 30 30" version="1.1" xmlns="http://www.w3.org/2000/svg" xmlns:xlink="http://www.w3.org/1999/xlink" xmlns:sketch="http://www.bohemiancoding.com/sketch/ns">
    <!-- Generator: Sketch 3.0.3 (7891) - http://www.bohemiancoding.com/sketch -->
    <title>fb</title>
    <desc>Created with Sketch.</desc>
    <defs></defs>
    <g id="Page-1" stroke="none" stroke-width="1" fill="none" fill-rule="evenodd" sketch:type="MSPage">
        <g id="fb" sketch:type="MSLayerGroup">
            <path d="M15.0414894,0 C26.8014894,0 30,3.11297872 30,15.1678723 C30,26.9604255 26.7178723,30 14.9585106,30 C2.93680851,30 0,26.8768085 0,15.083617 C0,3.0287234 3.02042553,0 15.0414894,0" id="Fill-1" fill="#4C6E90" sketch:type="MSShapeGroup"></path>
            <path d="M21.21,15.638125 C20.600625,14.986875 19.78875,14.555625 18.775,14.344375 L18.775,14.2575 C19.48,13.96625 20.033125,13.511875 20.433125,12.893125 C20.83375,12.275 21.03375,11.569375 21.03375,10.77625 C21.03375,10.0925 20.88875,9.488125 20.59875,8.964375 C20.308125,8.440625 19.869375,8.0225 19.281875,7.709375 C18.738125,7.418125 18.155625,7.2275 17.535,7.13625 C16.914375,7.045625 16.00125,7 14.796875,7 L9,7 L9,23.25 L15.568125,23.25 C16.706875,23.25 17.645625,23.148125 18.38375,22.944375 C19.121875,22.740625 19.8,22.39875 20.416875,21.91875 C20.93875,21.51875 21.35375,21.0125 21.6625,20.401875 C21.970625,19.790625 22.125,19.08125 22.125,18.27375 C22.125,17.1675 21.82,16.289375 21.21,15.638125 L21.21,15.638125 Z M16.65875,12.533125 C16.53375,12.8025 16.30625,13.013125 15.975625,13.16625 C15.674375,13.304375 15.3825,13.380625 15.1,13.395 C14.816875,13.41 14.3225,13.416875 13.6175,13.416875 L13.099375,13.416875 L13.099375,9.979375 L13.38625,9.979375 C14.120625,9.979375 14.67375,9.985 15.044375,9.995625 C15.415625,10.006875 15.736875,10.070625 16.00875,10.186875 C16.295625,10.310625 16.50625,10.510625 16.6425,10.786875 C16.778125,11.06375 16.84625,11.3325 16.84625,11.594375 C16.84625,11.95125 16.78375,12.26375 16.65875,12.533125 L16.65875,12.533125 Z M17.623125,19.25 C17.450625,19.559375 17.176875,19.794375 16.8025,19.954375 C16.37625,20.13625 15.9575,20.234375 15.54625,20.24875 C15.134375,20.26375 14.3925,20.270625 13.32,20.270625 L13.099375,20.270625 L13.099375,16.2 L13.86,16.2 C14.594375,16.2 15.180625,16.205625 15.6175,16.21625 C16.054375,16.2275 16.398125,16.28 16.648125,16.374375 C17.059375,16.52 17.368125,16.735 17.57375,17.01875 C17.779375,17.3025 17.8825,17.695 17.8825,18.196875 C17.8825,18.59 17.795625,18.94125 17.623125,19.25 L17.623125,19.25 Z" id="Fill-2" fill="#FFFFFF" sketch:type="MSShapeGroup"></path>
        </g>
    </g>
</svg>