<?xml version="1.0" encoding="UTF-8" standalone="no"?>
<svg version="1.1" xmlns="http://www.w3.org/2000/svg" xmlns:xlink="http://www.w3.org/1999/xlink" xmlns:sketch="http://www.bohemiancoding.com/sketch/ns">
    <!-- Generator: Sketch 3.0.3 (7891) - http://www.bohemiancoding.com/sketch -->
    <title>ios</title>
    <desc>Created with Sketch.</desc>
    <defs></defs>
    <g id="Page-1" stroke="none" stroke-width="1" fill="none" fill-rule="evenodd" sketch:type="MSPage">
        <g id="ios" sketch:type="MSLayerGroup">
            <path d="M97.1356913,28.0827416 L2.88327974,28.0827416 C1.29131833,28.0827416 0,26.8236854 0,25.2673258 L0,2.81824719 C0,1.26346067 1.29131833,0 2.88327974,0 L97.1350482,0 C98.7279743,0 100.014469,1.26346067 100.014469,2.81824719 L100.015113,25.2673258 C100.015113,26.8236854 98.7279743,28.0827416 97.1356913,28.0827416 Z" id="Shape" fill="#4D4D4D" sketch:type="MSShapeGroup"></path>
            <path d="M39.6437299,22.3045955 L37.9382637,22.3045955 L37.003537,19.3286742 L33.755627,19.3286742 L32.8659164,22.3045955 L31.2045016,22.3045955 L34.4231511,12.1738202 L36.4109325,12.1738202 L39.6437299,22.3045955 L39.6437299,22.3045955 Z M36.721865,18.0806966 L35.8765273,15.4355056 C35.7881029,15.1647303 35.6186495,14.5280337 35.3726688,13.5260674 L35.3424437,13.5260674 C35.2430868,13.957809 35.0845659,14.5938539 34.8678457,15.4355056 L34.0369775,18.0806966 L36.721865,18.0806966 L36.721865,18.0806966 Z M47.9057878,18.5629438 C47.9057878,19.8050562 47.5733119,20.7871461 46.9064309,21.5075843 C46.3096463,22.1488427 45.5691318,22.4697978 44.6842444,22.4697978 C43.729582,22.4697978 43.0424437,22.1250562 42.6254019,21.4332921 L42.6254019,25.2674831 L41.0244373,25.2674831 L41.0244373,17.4022921 C41.0244373,16.619618 41.0045016,15.8206517 40.9646302,14.9998539 L42.3733119,14.9998539 L42.4633441,16.1582247 L42.492926,16.1582247 C43.0273312,15.285618 43.8379421,14.8496404 44.9250804,14.8496404 C45.7762058,14.8496404 46.4861736,15.1894944 47.0536977,15.8698539 C47.6212219,16.5534719 47.9057878,17.450191 47.9057878,18.5629438 M46.2742765,18.6215955 C46.2742765,17.9109326 46.1167203,17.3240899 45.7993569,16.8620449 C45.4527331,16.3820787 44.9877814,16.1416067 44.4045016,16.1416067 C44.0102894,16.1416067 43.6511254,16.2758539 43.3302251,16.5404382 C43.0086817,16.8063258 42.7987138,17.1546517 42.7,17.5860674 C42.6504823,17.7867865 42.6254019,17.9497079 42.6254019,18.0797191 L42.6254019,19.2983708 C42.6254019,19.8285169 42.7864952,20.2772022 43.1073955,20.644427 C43.4286174,21.0103483 43.8459807,21.1918427 44.3607717,21.1918427 C44.9639871,21.1918427 45.433119,20.9562584 45.7691318,20.4854157 C46.1061093,20.0155506 46.2742765,19.3928652 46.2742765,18.6215955 M56.196463,18.5629438 C56.196463,19.8050562 55.8633441,20.7871461 55.1980707,21.5075843 C54.6012862,22.1488427 53.8594855,22.4697978 52.9745981,22.4697978 C52.0205788,22.4697978 51.3334405,22.1250562 50.9167203,21.4332921 L50.9167203,25.2674831 L49.3151125,25.2674831 L49.3151125,17.4022921 C49.3151125,16.619618 49.2948553,15.8206517 49.2562701,14.9998539 L50.6649518,14.9998539 L50.7536977,16.1582247 L50.7842444,16.1582247 C51.3170418,15.285618 52.1276527,14.8496404 53.2167203,14.8496404 C54.0665595,14.8496404 54.7765273,15.1894944 55.3446945,15.8698539 C55.911254,16.5534719 56.196463,17.450191 56.196463,18.5629438 M54.5639871,18.6215955 C54.5639871,17.9109326 54.4057878,17.3240899 54.088746,16.8620449 C53.7434084,16.3820787 53.2784566,16.1416067 52.6958199,16.1416067 C52.3003215,16.1416067 51.9411576,16.2758539 51.6199357,16.5404382 C51.2980707,16.8063258 51.0893891,17.1546517 50.9897106,17.5860674 C50.940836,17.7867865 50.914791,17.9497079 50.914791,18.0797191 L50.914791,19.2983708 C50.914791,19.8285169 51.0762058,20.2772022 51.3967846,20.644427 C51.7192926,21.0077416 52.1356913,21.1918427 52.6501608,21.1918427 C53.2546624,21.1918427 53.7244373,20.9562584 54.0588424,20.4854157 C54.3954984,20.0155506 54.5639871,19.3928652 54.5639871,18.6215955 M65.4662379,19.4629213 C65.4662379,20.3260787 65.1694534,21.0259888 64.578135,21.568191 C63.9273312,22.1579663 63.0186495,22.4541573 61.8553055,22.4541573 C60.7784566,22.4541573 59.9170418,22.2446404 59.2655949,21.8233258 L59.6360129,20.4707528 C60.3379421,20.8923933 61.1102894,21.1028876 61.9498392,21.1028876 C62.5540193,21.1028876 63.0234727,20.9640787 63.3581994,20.6887416 C63.6945338,20.4140562 63.8630225,20.0452022 63.8630225,19.5847865 C63.8630225,19.1738989 63.7234727,18.8291573 63.44791,18.5482809 C63.1707395,18.2674045 62.7118971,18.0060787 62.0688103,17.7656067 C60.3180064,17.1051236 59.4427653,16.1363933 59.4427653,14.8643034 C59.4427653,14.0330787 59.7511254,13.3527191 60.3694534,12.8219213 C60.9868167,12.2898202 61.8051447,12.0242584 62.8244373,12.0242584 C63.7340836,12.0242584 64.4916399,12.1848989 65.0935691,12.5055281 L64.692283,13.8277978 C64.1254019,13.5169438 63.4858521,13.361191 62.7710611,13.361191 C62.2054662,13.361191 61.7620579,13.5032584 61.4446945,13.7844607 C61.1790997,14.0330787 61.0434084,14.3383933 61.0434084,14.7007303 C61.0434084,15.1008652 61.1977492,15.4328989 61.503537,15.6919438 C61.7707395,15.9324157 62.2543408,16.1940674 62.9572347,16.474618 C63.8176849,16.8258764 64.4501608,17.2344831 64.8546624,17.7053258 C65.2630225,18.1768202 65.4662379,18.7630112 65.4662379,19.4629213 M70.7755627,16.2172022 L69.0096463,16.2172022 L69.0096463,19.7646517 C69.0096463,20.667236 69.3212219,21.1168989 69.9434084,21.1168989 C70.2302251,21.1168989 70.4672026,21.0921348 70.6553055,21.0419551 L70.7,22.2736404 C70.3845659,22.3935506 69.9684887,22.4531798 69.4546624,22.4531798 C68.822508,22.4531798 68.3276527,22.2566966 67.9707395,21.8656854 C67.6151125,21.4753258 67.4366559,20.8187528 67.4366559,19.896618 L67.4366559,16.2145955 L66.3861736,16.2145955 L66.3861736,14.9965955 L67.4366559,14.9965955 L67.4366559,13.6580337 L69.0099678,13.1770899 L69.0099678,14.9965955 L70.7758842,14.9965955 L70.7758842,16.2172022 L70.7755627,16.2172022 Z M78.7234727,18.591618 C78.7234727,19.7147978 78.4080386,20.6356292 77.7745981,21.3567191 C77.1128617,22.0986629 76.2327974,22.4694719 75.1350482,22.4694719 C74.0758842,22.4694719 73.2340836,22.1139775 72.6057878,21.4036404 C71.9778135,20.6910225 71.6639871,19.7949551 71.6639871,18.7128315 C71.6639871,17.5811798 71.9881029,16.6541573 72.6350482,15.9324157 C73.2832797,15.2119775 74.155627,14.8515955 75.2533762,14.8515955 C76.3118971,14.8515955 77.1601286,15.2070899 77.8041801,15.9180787 C78.4180064,16.609191 78.7234727,17.4993933 78.7234727,18.591618 M77.0639871,18.628764 C77.0639871,17.959809 76.9209003,17.386 76.6347267,16.9066854 C76.2993569,16.3263596 75.8186495,16.035382 75.1951768,16.035382 C74.5540193,16.035382 74.0614148,16.3263596 73.7273312,16.9066854 C73.4392283,17.386 73.2977492,17.970236 73.2977492,18.6600449 C73.2977492,19.3286742 73.4392283,19.9054157 73.7273312,20.383427 C74.0736334,20.9644045 74.5569132,21.2547303 75.1826367,21.2547303 C75.7942122,21.2547303 76.2745981,20.957236 76.6228296,20.3700674 C76.9154341,19.8783708 77.0639871,19.3 77.0639871,18.628764 M83.9321543,16.4273708 C83.7733119,16.3973933 83.6045016,16.3820787 83.4273312,16.3820787 C82.8639871,16.3820787 82.4289389,16.5964831 82.121865,17.0282247 C81.8546624,17.4104382 81.7221865,17.8904045 81.7221865,18.4720337 L81.7221865,22.3045955 L80.1202572,22.3045955 L80.1202572,17.2993258 C80.1202572,16.4586517 80.1054662,15.6912921 80.0736334,15.0005056 L81.4684887,15.0005056 L81.5270096,16.3986966 L81.5720257,16.3986966 C81.7414791,15.917427 82.0080386,15.5313034 82.3723473,15.2409775 C82.7289389,14.9786742 83.1151125,14.8489888 83.5305466,14.8489888 C83.6787781,14.8489888 83.8122186,14.8603933 83.9315113,14.8789663 L83.9321543,16.4273708 L83.9321543,16.4273708 Z M91.0948553,18.3065056 C91.0948553,18.597809 91.0765273,18.8425169 91.0369775,19.0416067 L86.2324759,19.0416067 C86.2498392,19.7646517 86.4832797,20.3156517 86.929582,20.6968876 C87.3340836,21.0373933 87.8575563,21.207809 88.5006431,21.207809 C89.2122186,21.207809 89.8610932,21.0931124 90.4440514,20.861764 L90.6954984,21.9885281 C90.0135048,22.2899326 89.2080386,22.4388427 88.278135,22.4388427 C87.1604502,22.4388427 86.2832797,22.1061573 85.6450161,21.4414382 C85.0086817,20.7750899 84.6893891,19.8803258 84.6893891,18.7597528 C84.6893891,17.6580787 84.9842444,16.741809 85.5794212,16.0086629 C86.2022508,15.2279438 87.0424437,14.8372584 88.1003215,14.8372584 C89.1389068,14.8372584 89.926045,15.227618 90.4601286,16.0086629 C90.8826367,16.627764 91.0948553,17.3951236 91.0948553,18.3065056 L91.0948553,18.3065056 Z M89.5678457,17.885191 C89.5794212,17.4039213 89.473955,16.9891236 89.2569132,16.6378652 C88.9790997,16.1859213 88.5527331,15.960764 87.9803859,15.960764 C87.4569132,15.960764 87.0311897,16.1797303 86.7057878,16.621573 C86.4395498,16.9725056 86.2810289,17.3947978 86.2321543,17.885191 L89.5678457,17.885191 L89.5678457,17.885191 Z M35.9533762,9.54882022 L35.1167203,9.54882022 L34.6578778,8.08708989 L33.0614148,8.08708989 L32.6241158,9.54882022 L31.8083601,9.54882022 L33.3900322,4.57222472 L34.3662379,4.57222472 L35.9533762,9.54882022 L35.9533762,9.54882022 Z M34.5189711,7.47385393 L34.1038585,6.17341573 C34.0588424,6.04144944 33.9778135,5.72864045 33.855627,5.23596629 L33.8411576,5.23596629 C33.792926,5.44711236 33.714791,5.76057303 33.6086817,6.17341573 L33.2006431,7.47385393 L34.5189711,7.47385393 L34.5189711,7.47385393 Z M39.903537,5.95966292 L38.562701,9.54816854 L37.7971061,9.54816854 L36.5003215,5.95966292 L37.3453376,5.95966292 L37.9504823,7.85737079 C38.0517685,8.17246067 38.1376206,8.47582022 38.2054662,8.76549438 L38.2263666,8.76549438 C38.2848875,8.50482022 38.3691318,8.20211236 38.4819936,7.85737079 L39.0784566,5.95966292 L39.903537,5.95966292 L39.903537,5.95966292 Z M43.4745981,9.5478427 L42.7672026,9.5478427 L42.7083601,9.13434831 L42.6868167,9.13434831 C42.4446945,9.46410112 42.0993569,9.62897753 41.6530547,9.62897753 C41.3176849,9.62897753 41.0475884,9.51982022 40.8430868,9.30476404 C40.6585209,9.10795506 40.566881,8.86389888 40.566881,8.57389888 C40.566881,8.13531461 40.7472669,7.801 41.1096463,7.56965169 C41.4710611,7.33765169 41.9807074,7.22491011 42.6356913,7.23044944 L42.6356913,7.16234831 C42.6356913,6.69085393 42.3906752,6.45396629 41.9003215,6.45396629 C41.5508039,6.45396629 41.2430868,6.54292135 40.9745981,6.71952809 L40.8151125,6.19589888 C41.144373,5.98996629 41.5508039,5.88602247 42.0318328,5.88602247 C42.9601286,5.88602247 43.4234727,6.38130337 43.4234727,7.37088764 L43.4234727,8.69250562 C43.4234727,9.05060674 43.4401929,9.33637079 43.4745981,9.5478427 L43.4745981,9.5478427 Z M42.6585209,8.31550562 L42.6585209,7.76124719 C41.788746,7.74658427 41.3543408,7.98770787 41.3543408,8.48526966 C41.3543408,8.67262921 41.4045016,8.81208989 41.5067524,8.90658427 C41.6080386,8.99944944 41.7366559,9.04604494 41.8906752,9.04604494 C42.0639871,9.04604494 42.2257235,8.99065169 42.3726688,8.87953933 C42.5199357,8.76875281 42.6109325,8.62831461 42.6440514,8.45594382 L42.6585209,8.31550562 L42.6585209,8.31550562 Z M45.6684887,4.88829213 C45.6684887,5.03231461 45.6215434,5.14635955 45.5282958,5.23629213 C45.4366559,5.32524719 45.3176849,5.36825843 45.1713826,5.36825843 C45.0401929,5.36825843 44.9305466,5.32296629 44.8411576,5.23303371 C44.7514469,5.1421236 44.7054662,5.02710112 44.7054662,4.88959551 C44.7054662,4.75111236 44.7527331,4.63804494 44.844373,4.55006742 C44.9366559,4.4614382 45.0504823,4.41679775 45.1874598,4.41679775 C45.3228296,4.41679775 45.4366559,4.4614382 45.5292605,4.55006742 C45.6215434,4.63804494 45.6684887,4.75111236 45.6684887,4.88829213 L45.6684887,4.88829213 Z M45.5797428,9.54816854 L44.7932476,9.54816854 L44.7932476,5.95966292 L45.5797428,5.95966292 L45.5797428,9.54816854 L45.5797428,9.54816854 Z M46.9453376,4.23595506 L46.9453376,9.47061798 L47.7315113,9.47061798 L47.7315113,4.23595506 L46.9453376,4.23595506 Z M51.8237942,9.5478427 L51.1163987,9.5478427 L51.059164,9.13434831 L51.0392283,9.13434831 C50.7948553,9.46410112 50.4511254,9.62897753 50.003537,9.62897753 C49.6688103,9.62897753 49.3990354,9.51982022 49.1945338,9.30476404 C49.0099678,9.10795506 48.9173633,8.86389888 48.9173633,8.57389888 C48.9173633,8.13531461 49.0983923,7.801 49.4607717,7.56965169 C49.8228296,7.33765169 50.3308682,7.22491011 50.9871383,7.23044944 L50.9871383,7.16234831 C50.9871383,6.69085393 50.7421222,6.45396629 50.2517685,6.45396629 C49.9009646,6.45396629 49.5935691,6.54292135 49.3266881,6.71952809 L49.1659164,6.19589888 C49.4958199,5.98996629 49.9012862,5.88602247 50.3823151,5.88602247 C51.3109325,5.88602247 51.773955,6.38130337 51.773955,7.37088764 L51.773955,8.69250562 C51.7723473,9.05060674 51.7903537,9.33637079 51.8237942,9.5478427 L51.8237942,9.5478427 Z M51.0080386,8.31550562 L51.0080386,7.76124719 C50.1376206,7.74658427 49.7038585,7.98770787 49.7038585,8.48526966 C49.7038585,8.67262921 49.7543408,8.81208989 49.8559486,8.90658427 C49.9575563,8.99944944 50.0858521,9.04604494 50.2401929,9.04604494 C50.4135048,9.04604494 50.573955,8.99065169 50.721865,8.87953933 C50.8681672,8.76875281 50.9598071,8.62831461 50.9932476,8.45594382 L51.0080386,8.31550562 L51.0080386,8.31550562 Z M56.5234727,7.70259551 C56.5234727,8.30801124 56.3585209,8.79025843 56.0292605,9.14966292 C55.7369775,9.46931461 55.3810289,9.62962921 54.9572347,9.62962921 C54.4517685,9.62962921 54.0800643,9.41848315 53.8421222,8.99521348 L53.8273312,8.99521348 L53.7845659,9.54947191 L53.1131833,9.54947191 C53.1315113,9.25947191 53.1411576,8.93623596 53.1411576,8.58204494 L53.1411576,4.31383146 L53.9286174,4.31383146 L53.9286174,6.48394382 C54.1623794,6.0854382 54.540836,5.88569663 55.0646302,5.88569663 C55.4945338,5.88569663 55.8450161,6.0518764 56.1157556,6.38488764 C56.388746,6.71594382 56.5234727,7.15680899 56.5234727,7.70259551 M55.7237942,7.73192135 C55.7237942,7.38196629 55.6453376,7.09750562 55.4890675,6.87560674 C55.3189711,6.63448315 55.0881029,6.51294382 54.796463,6.51294382 C54.6022508,6.51294382 54.4279743,6.57746067 54.2726688,6.70519101 C54.1170418,6.83324719 54.0128617,7.00235955 53.9601286,7.21513483 C53.9398714,7.29822472 53.9311897,7.38196629 53.9311897,7.46570787 L53.9311897,8.09230337 C53.9311897,8.33994382 54.0102894,8.55108989 54.1733119,8.72769663 C54.3366559,8.90430337 54.5392283,8.99325843 54.7832797,8.99325843 C55.0794212,8.99325843 55.3096463,8.8808427 55.4752412,8.65405618 C55.6401929,8.42889888 55.7237942,8.12097753 55.7237942,7.73192135 M57.5562701,4.23595506 L57.5562701,9.47061798 L58.3440514,9.47061798 L58.3440514,4.23595506 L57.5562701,4.23595506 Z M62.7909968,7.58431461 C62.7909968,7.72768539 62.7794212,7.84759551 62.7614148,7.94567416 L60.4003215,7.94567416 C60.4096463,8.3008427 60.5234727,8.57096629 60.7414791,8.75767416 C60.9424437,8.92613483 61.1983923,9.00955056 61.514791,9.00955056 C61.8643087,9.00955056 62.1826367,8.95317978 62.4684887,8.83913483 L62.5909968,9.39437079 C62.2565916,9.54132584 61.8610932,9.61529213 61.4045016,9.61529213 C60.855627,9.61529213 60.4250804,9.45139326 60.1106109,9.12457303 C59.7974277,8.79710112 59.6411576,8.35819101 59.6411576,7.80621348 C59.6411576,7.26564045 59.7858521,6.81434831 60.0794212,6.45494382 C60.385209,6.07207865 60.7971061,5.87950562 61.3170418,5.87950562 C61.8270096,5.87950562 62.2122186,6.07207865 62.4758842,6.45494382 C62.6855305,6.7592809 62.7909968,7.13660674 62.7909968,7.58431461 L62.7909968,7.58431461 Z M62.0398714,7.37773034 C62.0437299,7.14116854 61.9938907,6.93686517 61.8871383,6.76514607 C61.7495177,6.54389888 61.5418006,6.43246067 61.2598071,6.43246067 C61.0019293,6.43246067 60.7938907,6.54031461 60.6318328,6.75732584 C60.5016077,6.93067416 60.4257235,7.13660674 60.4003215,7.37773034 L62.0398714,7.37773034 L62.0398714,7.37773034 Z M69.2977492,7.72410112 C69.2977492,8.27673034 69.1424437,8.72867416 68.8308682,9.08319101 C68.5045016,9.44780899 68.0726688,9.62962921 67.5337621,9.62962921 C67.0138264,9.62962921 66.6,9.45530337 66.2916399,9.10534831 C65.9839228,8.75604494 65.8292605,8.31550562 65.8292605,7.78340449 C65.8292605,7.22751685 65.9877814,6.77166292 66.3073955,6.41779775 C66.6254019,6.06458427 67.0530547,5.887 67.5926045,5.887 C68.1118971,5.887 68.5305466,6.06132584 68.8469453,6.41062921 C69.1472669,6.74950562 69.2977492,7.18841573 69.2977492,7.72410112 M68.4807074,7.74332584 C68.4807074,7.41455056 68.4106109,7.13269663 68.2697749,6.89678652 C68.1041801,6.61232584 67.870418,6.47091011 67.5649518,6.47091011 C67.2485531,6.47091011 67.007717,6.61232584 66.8430868,6.89678652 C66.7012862,7.13269663 66.6311897,7.42008989 66.6311897,7.75831461 C66.6311897,8.08839326 66.7032154,8.36959551 66.8430868,8.60517978 C67.0138264,8.88931461 67.2514469,9.03235955 67.5578778,9.03235955 C67.8569132,9.03235955 68.0938907,8.88735955 68.2617363,8.59866292 C68.4086817,8.3565618 68.4807074,8.07177528 68.4807074,7.74332584 M73.5385852,9.54849438 L72.75209,9.54849438 L72.75209,7.48753933 C72.75209,6.85214607 72.5141479,6.53510112 72.0376206,6.53510112 C71.8032154,6.53510112 71.6160772,6.62275281 71.4694534,6.79740449 C71.322508,6.97205618 71.2508039,7.17798876 71.2508039,7.41389888 L71.2508039,9.54751685 L70.4630225,9.54751685 L70.4630225,6.98541573 C70.4630225,6.66934831 70.4533762,6.32753933 70.4344051,5.95738202 L71.1263666,5.95738202 L71.162701,6.51196629 L71.1845659,6.51196629 C71.2762058,6.34057303 71.4128617,6.19752809 71.5926045,6.08446067 C71.8061093,5.95119101 72.0437299,5.8847191 72.3057878,5.8847191 C72.6360129,5.8847191 72.9122186,5.99355056 73.1302251,6.2105618 C73.4028939,6.47579775 73.5382637,6.87234831 73.5382637,7.39891011 L73.5382637,9.54849438 L73.5385852,9.54849438 Z M78.6893891,6.55758427 L77.8237942,6.55758427 L77.8237942,8.30116854 C77.8237942,8.74398876 77.9752412,8.96491011 78.2819936,8.96491011 C78.4228296,8.96491011 78.5398714,8.95317978 78.6302251,8.9274382 L78.6530547,9.53383146 C78.4980707,9.59313483 78.2932476,9.62246067 78.0411576,9.62246067 C77.7305466,9.62246067 77.4893891,9.52601124 77.3138264,9.33506742 C77.1385852,9.14249438 77.0501608,8.81958427 77.0501608,8.36633708 L77.0501608,6.55758427 L76.5327974,6.55758427 L76.5327974,5.96031461 L77.0501608,5.96031461 L77.0501608,5.3024382 L77.821865,5.06652809 L77.821865,5.95933708 L78.6893891,5.95933708 L78.6893891,6.55758427 L78.6893891,6.55758427 Z M82.8498392,9.54849438 L82.062701,9.54849438 L82.062701,7.50252809 C82.062701,6.85735955 81.8237942,6.53510112 81.3488746,6.53510112 C80.985209,6.53510112 80.7344051,6.72213483 80.5980707,7.09652809 C80.573955,7.17570787 80.5614148,7.27085393 80.5614148,7.38392135 L80.5614148,9.54751685 L79.7749196,9.54751685 L79.7749196,4.31383146 L80.5614148,4.31383146 L80.5614148,6.46960674 L80.5758842,6.46960674 C80.8234727,6.08022472 81.1803859,5.88667416 81.6392283,5.88667416 C81.9672026,5.88667416 82.2350482,5.99452809 82.4498392,6.21153933 C82.7157556,6.48198876 82.8498392,6.88407865 82.8498392,7.4148764 L82.8498392,9.54849438 L82.8498392,9.54849438 Z M86.9025723,7.58431461 C86.9025723,7.72768539 86.8932476,7.84759551 86.8729904,7.94567416 L84.5128617,7.94567416 C84.5215434,8.3008427 84.6363344,8.57096629 84.8543408,8.75767416 C85.0533762,8.92613483 85.3106109,9.00955056 85.6257235,9.00955056 C85.9762058,9.00955056 86.2951768,8.95317978 86.5787781,8.83913483 L86.7032154,9.39437079 C86.3684887,9.54132584 85.9717042,9.61529213 85.5151125,9.61529213 C84.9672026,9.61529213 84.5353698,9.45139326 84.2212219,9.12457303 C83.9080386,8.79710112 83.7514469,8.35819101 83.7514469,7.80621348 C83.7514469,7.26564045 83.8967846,6.81434831 84.188746,6.45494382 C84.4942122,6.07207865 84.9073955,5.87950562 85.426045,5.87950562 C85.9376206,5.87950562 86.3241158,6.07207865 86.5858521,6.45494382 C86.7967846,6.7592809 86.9025723,7.13660674 86.9025723,7.58431461 L86.9025723,7.58431461 Z M86.1514469,7.37773034 C86.1565916,7.14116854 86.1045016,6.93686517 85.9990354,6.76514607 C85.8620579,6.54389888 85.6536977,6.43246067 85.3720257,6.43246067 C85.1141479,6.43246067 84.9054662,6.54031461 84.7450161,6.75732584 C84.6135048,6.93067416 84.537299,7.13660674 84.5128617,7.37773034 L86.1514469,7.37773034 L86.1514469,7.37773034 Z" id="Shape" fill="#FFFFFF" sketch:type="MSShapeGroup"></path>
            <path d="M20.962701,13.384 C20.9411576,10.9291011 22.9456592,9.73553933 23.037299,9.6811236 C21.9022508,8.00238202 20.1430868,7.77429213 19.5241158,7.75637079 C18.0469453,7.59866292 16.6131833,8.65178652 15.8614148,8.65178652 C15.092926,8.65178652 13.9340836,7.77135955 12.6855305,7.79644944 C11.0778135,7.82186517 9.57266881,8.76485393 8.74855305,10.2308202 C7.04598071,13.2165169 8.31607717,17.6046404 9.94662379,20.018809 C10.7620579,21.2019438 11.7157556,22.5219326 12.9636656,22.4753371 C14.1848875,22.4245056 14.6405145,21.6861461 16.1135048,21.6861461 C17.5729904,21.6861461 18.0009646,22.4753371 19.273955,22.4440562 C20.5832797,22.4241798 21.4086817,21.2563596 22.1961415,20.0641011 C23.1385852,18.7115281 23.5170418,17.3739438 23.5318328,17.3048652 C23.5022508,17.2960674 20.9893891,16.323427 20.962701,13.384 M18.559164,6.16821348 C19.2151125,5.33601124 19.6652733,4.20403371 19.5398714,3.05576404 C18.5897106,3.09779775 17.4012862,3.72178652 16.7167203,4.53606742 C16.1118971,5.25226966 15.5713826,6.42725843 15.7099678,7.53349438 C16.778135,7.61332584 17.873955,6.98640449 18.559164,6.16821348" id="Shape" fill="#FFFFFF" sketch:type="MSShapeGroup"></path>
        </g>
    </g>
</svg>