<?xml version="1.0" encoding="UTF-8" standalone="no"?>
<svg width="210px" height="132px" viewBox="0 0 210 132" version="1.1" xmlns="http://www.w3.org/2000/svg" xmlns:xlink="http://www.w3.org/1999/xlink" xmlns:sketch="http://www.bohemiancoding.com/sketch/ns">
    <!-- Generator: Sketch 3.0.3 (7891) - http://www.bohemiancoding.com/sketch -->
    <title>logo</title>
    <desc>Created with Sketch.</desc>
    <defs></defs>
    <g id="Page-1" stroke="none" stroke-width="1" fill="none" fill-rule="evenodd" sketch:type="MSPage">
        <g id="logo" sketch:type="MSLayerGroup">
            <rect id="Rectangle-2" fill="#FFCB05" sketch:type="MSShapeGroup" x="0" y="0" width="210" height="132" rx="13"></rect>
            <path d="M110.048358,38.6920932 L110.048358,37.7051541 L109.700448,37.7051541 L109.700448,37.4937419 L110.633955,37.4937419 L110.633955,37.7051541 L110.285522,37.7051541 L110.285522,38.6920932 L110.048358,38.6920932 L110.048358,38.6920932 Z M111.736716,37.8799355 L111.470299,38.3032832 L111.318284,38.3032832 L111.059701,37.8867384 L111.059701,38.6920932 L110.822537,38.6920932 L110.822537,37.4937419 L111.051343,37.4937419 L111.396642,38.0311685 L111.748209,37.4937419 L111.973358,37.4937419 L111.973358,38.6920932 L111.737239,38.6920932 L111.737239,37.8799355 L111.736716,37.8799355 Z M21.4628358,35.9473978 L23.2739552,35.9473978 L23.2739552,40.4383369 L24.5271642,40.4383369 L27.0330597,35.9473978 L29.0526119,35.9421649 L26.0514925,41.1489749 L29.3226866,46.5326595 L27.0790299,46.5326595 L24.5271642,42.0260215 L23.2739552,42.0260215 L23.2739552,46.5326595 L21.4628358,46.5326595 L21.4628358,42.0260215 L20.1197761,42.0260215 L17.5830597,46.5326595 L15.4527612,46.5326595 L18.6847761,41.1798495 L15.6935821,35.9473978 L17.703209,35.9473978 L20.1944776,40.4383369 L21.4628358,40.4383369 L21.4628358,35.9473978 Z M31.5480597,43.1448315 L31.5480597,43.7952903 C31.5480597,44.6121577 32.1059701,45.201914 33.2379851,45.201914 C34.1594776,45.201914 34.656791,44.7932186 34.7926119,44.1579355 L36.453806,44.1579355 C36.3028358,45.7461434 35.1546269,46.7131971 33.2379851,46.7131971 C31.201194,46.7131971 29.8873881,45.639914 29.8873881,43.8251183 L29.8873881,41.4053907 C29.8873881,39.6214695 31.201194,38.4869606 33.2379851,38.4869606 C35.200597,38.4869606 36.4689552,39.5602437 36.4689552,41.376086 L36.4689552,43.1448315 L31.5480597,43.1448315 L31.5480597,43.1448315 Z M31.5480597,41.8747885 L34.808806,41.8747885 L34.808806,41.376086 C34.808806,40.5586953 34.2493284,39.9998136 33.1784328,39.9998136 C32.1059701,39.9998136 31.5480597,40.5586953 31.5480597,41.376086 L31.5480597,41.8747885 L31.5480597,41.8747885 Z M44.7853731,46.5321362 L43.1247015,46.5321362 L43.1247015,40.1813978 L40.4678358,40.1813978 L40.4678358,43.0548244 C40.4678358,45.4436774 39.260597,46.5326595 37.8109701,46.5326595 L37.4040299,46.5326595 L37.4040299,45.0203297 L37.5701493,45.0203297 C38.5506716,45.0203297 38.8980597,44.3248674 38.8980597,43.0694767 L38.8980597,38.6695914 L44.7853731,38.6695914 L44.7853731,46.5321362 L44.7853731,46.5321362 Z M48.4676866,46.5321362 L48.4676866,40.1813978 L45.9173881,40.1813978 L45.9173881,38.6695914 L52.6791791,38.6695914 L52.6791791,40.1813978 L50.1283582,40.1813978 L50.1283582,46.5321362 L48.4676866,46.5321362 Z M53.1315672,44.4002222 C53.1315672,42.7816631 54.2040299,41.8753118 56.3776866,41.8753118 L58.0984328,41.8753118 L58.0984328,41.254681 C58.0984328,40.4838638 57.6303731,39.9998136 56.6190299,39.9998136 C55.6076866,39.9998136 55.1396269,40.4838638 55.1396269,41.1186237 L53.524403,41.1186237 C53.524403,39.6062939 54.5054478,38.4874839 56.6190299,38.4874839 C58.7315672,38.4874839 59.7585821,39.6062939 59.7585821,41.1489749 L59.7585821,46.5326595 L58.1590299,46.5326595 L58.1590299,45.6550896 C57.705597,46.199319 56.8755224,46.7137204 55.7581343,46.7137204 C54.338806,46.7137204 53.1315672,45.9418566 53.1315672,44.4002222 M58.0984328,44.3091685 L58.0984328,43.1453548 L56.3776866,43.1453548 C55.1547761,43.1453548 54.7917164,43.6749319 54.7917164,44.218638 C54.7917164,44.8837491 55.3057463,45.201914 56.0908955,45.201914 C56.9512687,45.201914 57.6152239,44.8240932 58.0984328,44.3091685 M60.858209,46.521147 L62.8521642,43.537828 C61.9160448,43.2971111 61.2672388,42.5100717 61.2672388,41.1641505 C61.2672388,39.5314624 62.2639552,38.6690681 63.5626119,38.6690681 L67.6372388,38.6690681 L67.6372388,46.5326595 L65.9776119,46.5326595 L65.9776119,43.629405 L64.6340299,43.629405 L62.8072388,46.5326595 L60.858209,46.521147 L60.858209,46.521147 Z M63.9852239,40.120172 C63.3510448,40.120172 62.9279104,40.5445663 62.9279104,41.1337993 C62.9279104,41.9810179 63.4111194,42.2986595 63.9695522,42.2986595 L65.9776119,42.2986595 L65.9776119,40.120172 L63.9852239,40.120172 L63.9852239,40.120172 Z M72.9191045,46.5321362 L72.9191045,38.6695914 L74.5802985,38.6695914 L74.5802985,41.8747885 L75.5158955,41.8747885 L77.7652985,38.6695914 L79.7185075,38.6695914 L76.9503731,42.5555986 L79.8783582,46.5410323 L77.795597,46.5321362 L75.5012687,43.3264158 L74.5802985,43.3264158 L74.5802985,46.5321362 L72.9191045,46.5321362 Z M80.3605224,44.4002222 C80.3605224,42.7816631 81.4319403,41.8753118 83.6061194,41.8753118 L85.3263433,41.8753118 L85.3263433,41.254681 C85.3263433,40.4838638 84.858806,39.9998136 83.8474627,39.9998136 C82.8361194,39.9998136 82.3685821,40.4838638 82.3685821,41.1186237 L80.7528358,41.1186237 C80.7528358,39.6062939 81.734403,38.4874839 83.8474627,38.4874839 C85.9610448,38.4874839 86.9870149,39.6062939 86.9870149,41.1489749 L86.9870149,46.5326595 L85.3864179,46.5326595 L85.3864179,45.6550896 C84.9345522,46.199319 84.1044776,46.7137204 82.9870896,46.7137204 C81.568806,46.7137204 80.3605224,45.9418566 80.3605224,44.4002222 M85.3263433,44.3091685 L85.3263433,43.1453548 L83.6061194,43.1453548 C82.383209,43.1453548 82.0217164,43.6749319 82.0217164,44.218638 C82.0217164,44.8837491 82.5347015,45.201914 83.318806,45.201914 C84.1797015,45.201914 84.8436567,44.8240932 85.3263433,44.3091685 M95.5092537,41.376086 L95.5092537,43.8251183 C95.5092537,45.8063226 94.2408955,46.7137204 92.670597,46.7137204 C91.5845522,46.7137204 90.8443284,46.2296703 90.4666418,45.7607957 L90.4666418,48.9513405 L88.8064925,48.9513405 L88.8064925,38.6695914 L90.3908955,38.6695914 L90.3908955,39.546638 C90.8443284,39.0018853 91.613806,38.4874839 92.731194,38.4874839 C94.2257463,38.4869606 95.5092537,39.3943584 95.5092537,41.376086 L95.5092537,41.376086 Z M90.4666418,44.1882867 C90.9195522,44.6718136 91.5234328,45.201914 92.3686567,45.201914 C93.1694776,45.201914 93.8491045,44.6419857 93.8491045,43.7042366 L93.8491045,41.4959211 C93.8491045,40.5586953 93.1694776,39.9998136 92.383806,39.9998136 C91.5385821,39.9998136 90.9195522,40.5288674 90.4666418,41.0129176 L90.4666418,44.1882867 L90.4666418,44.1882867 Z M98.7684328,46.5321362 L98.7684328,40.1813978 L96.2176119,40.1813978 L96.2176119,38.6695914 L102.980448,38.6695914 L102.980448,40.1813978 L100.428582,40.1813978 L100.428582,46.5321362 L98.7684328,46.5321362 Z M103.431791,44.4002222 C103.431791,42.7816631 104.504776,41.8753118 106.67791,41.8753118 L108.399179,41.8753118 L108.399179,41.254681 C108.399179,40.4838638 107.931119,39.9998136 106.919254,39.9998136 C105.908955,39.9998136 105.440373,40.4838638 105.440373,41.1186237 L103.825149,41.1186237 C103.825149,39.6062939 104.806716,38.4874839 106.919254,38.4874839 C109.032836,38.4874839 110.059328,39.6062939 110.059328,41.1489749 L110.059328,46.5326595 L108.460299,46.5326595 L108.460299,45.6550896 C108.006343,46.199319 107.176269,46.7137204 106.058358,46.7137204 C104.640075,46.7137204 103.431791,45.9418566 103.431791,44.4002222 M108.399179,44.3091685 L108.399179,43.1453548 L106.67791,43.1453548 C105.455522,43.1453548 105.09194,43.6749319 105.09194,44.218638 C105.09194,44.8837491 105.60597,45.201914 106.391119,45.201914 C107.252015,45.201914 107.916493,44.8240932 108.399179,44.3091685" id="Shape" fill="#FFFFFF" sketch:type="MSShapeGroup"></path>
            <path d="M166.43806,22.7838495 L155.475224,46.3029319 L163.682463,46.3029319 L170.903955,30.3711398 L166.43806,22.7838495 Z M171.343284,23.0250896 L171.343284,46.5614409 L179.145149,46.5614409 L179.145149,23.0250896 L171.343284,23.0250896 Z M179.941791,38.69 L179.938657,38.6973262 L184.468806,46.3029319 L192.009478,46.3029319 L195.600373,38.6973262 L179.941791,38.69 Z M165.578209,22.7665806 L158.832612,22.7665806 L155.240149,30.3706165 L162.007164,30.3706165 L165.578209,22.7665806 Z M187.965149,37.8872616 L194.999627,22.7665806 L186.791866,22.7665806 L179.938134,37.8872616 L187.965149,37.8872616 Z" id="Shape" fill="#FFFFFF" sketch:type="MSShapeGroup"></path>
        </g>
    </g>
</svg>