<?xml version="1.0" encoding="utf-8"?>
<!-- Generator: Adobe Illustrator 16.0.0, SVG Export Plug-In . SVG Version: 6.00 Build 0)  -->
<!DOCTYPE svg PUBLIC "-//W3C//DTD SVG 1.1//EN" "http://www.w3.org/Graphics/SVG/1.1/DTD/svg11.dtd">
<svg version="1.1" id="Layer_1" xmlns="http://www.w3.org/2000/svg" xmlns:xlink="http://www.w3.org/1999/xlink" x="0px" y="0px"
	 viewBox="0 0 18.001 24" enable-background="new 0 0 18.001 24" xml:space="preserve" fill="#7a7a7a">
<polygon points="6,4 2,9.417 3,10.417 7,6.417 9.001,6.417 6,12 6,17.999 0,17.999 0.001,20 8,20 8,14 12,17.418 12,24 14,24 14,16 
	10,12.418 11,9.999 12,11 18.001,11 18.001,8.999 13,8.999 13,4 "/>
<g>
	<defs>
		<rect id="SVGID_1_" width="18" height="24"/>
	</defs>
	<clipPath id="SVGID_2_">
		<use xlink:href="#SVGID_1_"  overflow="visible"/>
	</clipPath>
	<path clip-path="url(#SVGID_2_)" d="M16.001,2c0-1.105-0.896-2-2-2c-1.105,0-2,0.895-2,2c0,1.104,0.895,2,2,2
		C15.104,4,16.001,3.104,16.001,2"/>
</g>
</svg>
