<?xml version="1.0" encoding="utf-8"?>
<!-- Generator: Adobe Illustrator 16.0.0, SVG Export Plug-In . SVG Version: 6.00 Build 0)  -->
<!DOCTYPE svg PUBLIC "-//W3C//DTD SVG 1.1//EN" "http://www.w3.org/Graphics/SVG/1.1/DTD/svg11.dtd">
<svg version="1.1" id="Layer_1" xmlns="http://www.w3.org/2000/svg" xmlns:xlink="http://www.w3.org/1999/xlink" x="0px" y="0px"
	 viewBox="0 0 38.291 38.291" enable-background="new 0 0 38.291 38.291" xml:space="preserve">
<g>
	<defs>
		<rect id="SVGID_1_" width="38.291" height="38.291"/>
	</defs>
	<clipPath id="SVGID_2_">
		<use xlink:href="#SVGID_1_"  overflow="visible"/>
	</clipPath>
	<path clip-path="url(#SVGID_2_)" fill="#7a7a7a" d="M6.536,38.291H3.268C1.466,38.291,0,36.825,0,35.022v-7.219l13.73-13.73
		c-0.08-0.571-0.121-1.152-0.121-1.733C13.609,5.536,19.146,0,25.95,0c6.805,0,12.341,5.536,12.341,12.341
		S32.755,24.682,25.95,24.682c-1.225,0-2.429-0.179-3.591-0.53l-2.8,2.799h-3.951v4.535h-4.536v4.537H6.536V38.291z M2,28.632v6.391
		c0,0.699,0.569,1.269,1.268,1.269h1.268v-2.269h4.537v-4.537h4.536V24.95h5.122l3.1-3.099l0.597,0.216
		c1.129,0.407,2.314,0.614,3.522,0.614c5.702,0,10.341-4.639,10.341-10.341S31.652,2,25.95,2S15.609,6.639,15.609,12.341
		c0,0.64,0.059,1.276,0.174,1.895l0.096,0.518L2,28.632z"/>
	<path clip-path="url(#SVGID_2_)" fill="#7a7a7a" d="M28.214,13.98c-2.152,0-3.902-1.751-3.902-3.903
		c0-2.151,1.75-3.902,3.902-3.902s3.902,1.751,3.902,3.902C32.116,12.229,30.366,13.98,28.214,13.98 M28.214,7.175
		c-1.601,0-2.902,1.302-2.902,2.902c0,1.601,1.302,2.903,2.902,2.903s2.902-1.302,2.902-2.903
		C31.116,8.477,29.814,7.175,28.214,7.175"/>
</g>
</svg>
