<?xml version="1.0" encoding="utf-8"?>
<!-- Generator: Adobe Illustrator 16.0.0, SVG Export Plug-In . SVG Version: 6.00 Build 0)  -->
<!DOCTYPE svg PUBLIC "-//W3C//DTD SVG 1.1//EN" "http://www.w3.org/Graphics/SVG/1.1/DTD/svg11.dtd">
<svg version="1.1" id="Layer_1" xmlns="http://www.w3.org/2000/svg" xmlns:xlink="http://www.w3.org/1999/xlink" x="0px" y="0px"
	 viewBox="0 0 248.516 412.001" enable-background="new 0 0 248.516 412.001"
	 xml:space="preserve" fill="#7a7a7a">
<g>
	<defs>
		<rect id="SVGID_1_" width="248.516" height="412.001"/>
	</defs>
	<clipPath id="SVGID_2_">
		<use xlink:href="#SVGID_1_"  overflow="visible"/>
	</clipPath>
	<path clip-path="url(#SVGID_2_)" d="M124.258,0C61.564,0,10.738,50.824,10.738,113.521c0,62.693,49.682,135.556,113.52,244.869
		c63.837-109.313,113.521-182.176,113.521-244.869C237.778,50.824,186.953,0,124.258,0 M124.258,151.476
		c-22.484,0-40.711-18.228-40.711-40.712c0-22.48,18.227-40.708,40.711-40.708c22.484,0,40.711,18.228,40.711,40.708
		C164.969,133.248,146.742,151.476,124.258,151.476 M248.516,352.319c0,10.691-5.378,30.822-41.391,45.515
		c-46.282,18.882-119.42,18.896-165.733,0C5.378,383.143,0,363.012,0,352.319c0-26.917,29.684-42.741,55.576-50.472
		c5.016,8.507,10.195,17.23,15.535,26.22c0.154,0.258,0.309,0.519,0.462,0.777c-87.379,21.638-16.464,52.804,52.686,52.804
		c69.076,0,139.972-31.188,52.684-52.805c0.152-0.259,0.309-0.52,0.462-0.776c5.34-8.989,10.521-17.714,15.536-26.22
		C218.842,309.585,248.516,325.403,248.516,352.319"/>
</g>
</svg>
