<?xml version="1.0" encoding="UTF-8" standalone="no"?>
<svg width="28px" height="22px" viewBox="0 0 28 22" version="1.1" xmlns="http://www.w3.org/2000/svg" xmlns:xlink="http://www.w3.org/1999/xlink" xmlns:sketch="http://www.bohemiancoding.com/sketch/ns">
    <!-- Generator: Sketch 3.0.3 (7891) - http://www.bohemiancoding.com/sketch -->
    <title>135logo</title>
    <desc>Created with Sketch.</desc>
    <defs></defs>
    <g id="Page-1" stroke="none" stroke-width="1" fill="none" fill-rule="evenodd" sketch:type="MSPage">
        <g id="135logo" sketch:type="MSLayerGroup" transform="translate(1.000000, 1.000000)">
            <path d="M18.504,14.985 C18.633,12.983 18.761,10.992 18.891,8.984 L19.038,8.984 C21.189,8.984 23.341,8.985 25.492,8.982 C25.606,8.982 25.639,9.013 25.638,9.127 C25.633,9.763 25.634,10.398 25.637,11.034 C25.637,11.12 25.61,11.169 25.536,11.212 C25.048,11.5 24.513,11.637 23.958,11.711 C23.173,11.815 22.4,11.72 21.61,11.547 C21.573,11.979 21.536,12.404 21.497,12.856 C21.687,12.84 21.865,12.821 22.044,12.812 C22.88,12.771 23.707,12.805 24.51,13.076 C25.128,13.285 25.61,13.686 26.02,14.174 C26.669,14.946 26.833,15.863 26.755,16.837 C26.654,18.092 26.048,19.074 25.07,19.835 C24.595,20.204 24.031,20.375 23.445,20.469 C22.72,20.586 21.99,20.572 21.262,20.498 C20.762,20.447 20.274,20.346 19.803,20.167 C19.161,19.922 18.691,19.486 18.339,18.903 C17.948,18.255 17.725,17.559 17.697,16.802 C17.696,16.775 17.699,16.748 17.701,16.711 C17.748,16.708 17.79,16.704 17.832,16.704 C18.775,16.704 19.719,16.706 20.662,16.701 C20.774,16.7 20.814,16.728 20.81,16.844 C20.801,17.13 20.831,17.411 20.954,17.675 C21.195,18.194 21.813,18.429 22.331,18.202 C22.535,18.112 22.655,17.945 22.756,17.759 C22.897,17.499 22.985,17.221 22.999,16.926 C23.016,16.56 23.041,16.192 22.953,15.83 C22.856,15.429 22.594,15.192 22.204,15.072 C21.455,14.842 20.689,14.83 19.918,14.873 C19.452,14.899 18.989,14.946 18.504,14.985 L18.504,14.985 Z M7.677,16.566 C7.754,16.562 7.796,16.559 7.839,16.559 C8.775,16.559 9.71,16.561 10.646,16.556 C10.757,16.555 10.786,16.586 10.8,16.698 C10.837,16.994 10.876,17.293 10.952,17.581 C11.078,18.057 11.33,18.252 11.824,18.28 C11.987,18.289 12.157,18.273 12.316,18.235 C12.544,18.181 12.699,18.022 12.79,17.807 C12.987,17.341 13.012,16.857 12.918,16.368 C12.831,15.913 12.513,15.667 12.091,15.553 C11.896,15.501 11.687,15.495 11.483,15.484 C11.263,15.473 11.042,15.481 10.813,15.481 L10.813,13.218 C11.127,13.218 11.439,13.233 11.749,13.213 C11.962,13.2 12.183,13.167 12.381,13.093 C12.718,12.966 12.918,12.708 12.96,12.338 C12.992,12.053 13.004,11.768 12.903,11.496 C12.797,11.208 12.585,11.037 12.274,10.995 C12.035,10.963 11.797,10.963 11.578,11.068 C11.257,11.221 11.102,11.506 11.034,11.84 C11.006,11.977 11.01,12.122 11.011,12.264 C11.012,12.34 10.997,12.371 10.916,12.371 C9.921,12.369 8.926,12.37 7.932,12.369 C7.909,12.369 7.887,12.362 7.849,12.356 C7.86,12.243 7.865,12.134 7.882,12.027 C7.973,11.443 8.148,10.886 8.499,10.407 C9.083,9.611 9.841,9.066 10.826,8.861 C11.618,8.696 12.417,8.685 13.217,8.749 C13.79,8.795 14.355,8.9 14.856,9.2 C15.474,9.57 15.996,10.046 16.235,10.748 C16.613,11.854 16.362,13.129 15.218,13.818 C14.989,13.956 14.72,14.028 14.471,14.132 C14.436,14.147 14.406,14.176 14.374,14.198 C14.405,14.216 14.434,14.244 14.468,14.252 C15.018,14.379 15.492,14.643 15.91,15.022 C16.279,15.357 16.49,15.776 16.588,16.253 C16.712,16.857 16.722,17.465 16.603,18.075 C16.479,18.713 16.157,19.214 15.641,19.608 C14.966,20.123 14.203,20.401 13.369,20.494 C12.45,20.596 11.534,20.571 10.627,20.372 C9.828,20.197 9.183,19.767 8.634,19.174 C8.206,18.711 7.916,18.176 7.8,17.557 C7.739,17.235 7.718,16.905 7.677,16.566 L7.677,16.566 Z M5.171,20.283 L-0.318,20.283 L-0.318,18.209 C-0.273,18.207 -0.231,18.203 -0.189,18.202 C-1.55431223e-15,18.2 0.19,18.204 0.379,18.196 C0.618,18.186 0.754,18.046 0.767,17.807 C0.769,17.768 0.769,17.728 0.769,17.689 L0.769,13.581 L0.769,13.448 L0.621,13.448 C0.282,13.448 -0.058,13.445 -0.397,13.45 C-0.485,13.45 -0.51,13.421 -0.51,13.333 C-0.507,12.749 -0.506,12.165 -0.511,11.581 C-0.512,11.495 -0.478,11.456 -0.407,11.42 C0.273,11.079 0.857,10.615 1.309,10.004 C1.51,9.732 1.654,9.415 1.812,9.112 C1.859,9.021 1.901,8.979 2.011,8.98 C2.678,8.986 3.345,8.986 4.012,8.981 C4.13,8.98 4.155,9.018 4.155,9.129 C4.152,11.915 4.152,14.702 4.153,17.488 C4.153,17.61 4.161,17.733 4.179,17.853 C4.216,18.098 4.315,18.186 4.564,18.197 C4.737,18.205 4.911,18.203 5.085,18.201 C5.154,18.2 5.183,18.219 5.183,18.294 C5.18,18.941 5.181,19.588 5.18,20.236 C5.18,20.247 5.176,20.258 5.171,20.283 L5.171,20.283 Z" id="Shape" fill="#0072BB" sketch:type="MSShapeGroup"></path>
            <path d="M0.388,0.026 L-0.175,0.026 L-0.175,-0.328 L1.421,-0.328 L1.421,0.026 L0.858,0.026 L0.858,1.383 L0.388,1.383 L0.388,0.026 L0.388,0.026 Z M2.143,1.427 C2.061,1.427 1.985,1.417 1.914,1.398 C1.844,1.377 1.782,1.347 1.728,1.305 C1.676,1.263 1.635,1.21 1.604,1.146 C1.575,1.081 1.56,1.005 1.56,0.917 C1.56,0.82 1.578,0.74 1.612,0.677 C1.646,0.615 1.69,0.564 1.745,0.527 C1.799,0.49 1.86,0.462 1.93,0.443 C2,0.423 2.07,0.409 2.141,0.398 C2.211,0.387 2.281,0.377 2.349,0.372 C2.417,0.365 2.478,0.355 2.532,0.342 C2.585,0.329 2.627,0.31 2.658,0.284 C2.688,0.259 2.703,0.222 2.701,0.173 C2.701,0.125 2.692,0.085 2.676,0.054 C2.659,0.024 2.638,-0.001 2.61,-0.017 C2.58,-0.035 2.548,-0.046 2.512,-0.051 C2.476,-0.057 2.437,-0.06 2.395,-0.06 C2.302,-0.06 2.229,-0.04 2.176,-4.4408921e-16 C2.123,0.04 2.092,0.106 2.083,0.198 L1.613,0.198 C1.619,0.091 1.647,-4.4408921e-16 1.695,-0.074 C1.744,-0.148 1.805,-0.207 1.881,-0.252 C1.956,-0.296 2.04,-0.327 2.133,-0.346 C2.226,-0.365 2.32,-0.374 2.417,-0.374 C2.504,-0.374 2.591,-0.368 2.679,-0.355 C2.768,-0.344 2.848,-0.32 2.921,-0.284 C2.993,-0.249 3.053,-0.199 3.1,-0.136 C3.146,-0.072 3.169,0.01 3.169,0.112 L3.169,1.003 C3.169,1.08 3.173,1.154 3.182,1.225 C3.192,1.296 3.206,1.349 3.229,1.384 L2.752,1.384 C2.743,1.357 2.735,1.33 2.73,1.303 C2.724,1.276 2.72,1.247 2.718,1.219 C2.644,1.296 2.556,1.35 2.454,1.381 C2.353,1.411 2.249,1.427 2.143,1.427 L2.143,1.427 Z M2.318,1.115 C2.411,1.115 2.482,1.1 2.533,1.069 C2.584,1.038 2.621,1.001 2.645,0.958 C2.669,0.915 2.684,0.872 2.69,0.828 C2.696,0.783 2.699,0.748 2.699,0.722 L2.699,0.546 C2.679,0.563 2.654,0.578 2.626,0.588 C2.598,0.598 2.565,0.605 2.53,0.612 C2.495,0.619 2.458,0.625 2.421,0.629 C2.383,0.634 2.346,0.639 2.309,0.646 C2.271,0.652 2.235,0.661 2.202,0.672 C2.169,0.684 2.14,0.698 2.114,0.717 C2.088,0.736 2.068,0.759 2.054,0.788 C2.038,0.816 2.03,0.854 2.03,0.897 C2.03,0.94 2.038,0.977 2.053,1.004 C2.068,1.031 2.089,1.054 2.115,1.07 C2.141,1.086 2.173,1.097 2.208,1.104 C2.243,1.111 2.28,1.115 2.318,1.115 L2.318,1.115 Z M3.533,-0.328 L4.003,-0.328 L4.003,0.371 L4.632,-0.328 L5.186,-0.328 L4.47,0.427 L5.278,1.384 L4.708,1.384 L4.103,0.672 L4.003,0.781 L4.003,1.384 L3.533,1.384 L3.533,-0.328 L3.533,-0.328 Z M6.245,1.427 C6.114,1.427 5.996,1.406 5.891,1.363 C5.785,1.32 5.695,1.259 5.62,1.182 C5.545,1.105 5.486,1.013 5.444,0.906 C5.402,0.8 5.382,0.681 5.382,0.553 C5.382,0.421 5.402,0.298 5.44,0.184 C5.479,0.071 5.536,-0.028 5.611,-0.111 C5.686,-0.193 5.777,-0.257 5.885,-0.304 C5.993,-0.35 6.116,-0.373 6.256,-0.373 C6.358,-0.373 6.455,-0.359 6.549,-0.333 C6.643,-0.307 6.727,-0.267 6.8,-0.213 C6.874,-0.158 6.935,-0.091 6.981,-0.009 C7.028,0.073 7.054,0.168 7.06,0.275 L6.6,0.275 C6.57,0.079 6.454,-0.019 6.252,-0.019 C6.177,-0.019 6.114,-0.002 6.064,0.032 C6.014,0.066 5.972,0.11 5.94,0.165 C5.908,0.219 5.885,0.279 5.873,0.346 C5.859,0.411 5.852,0.476 5.852,0.537 C5.852,0.598 5.859,0.662 5.873,0.725 C5.886,0.789 5.907,0.847 5.937,0.899 C5.966,0.952 6.006,0.994 6.057,1.027 C6.108,1.06 6.17,1.077 6.243,1.077 C6.355,1.077 6.442,1.046 6.503,0.982 C6.564,0.92 6.602,0.835 6.617,0.729 L7.071,0.729 C7.04,0.957 6.952,1.129 6.805,1.249 C6.658,1.367 6.472,1.427 6.245,1.427 L6.245,1.427 Z M7.334,-0.328 L7.784,-0.328 L7.784,0.831 L8.43,-0.328 L8.963,-0.328 L8.963,1.384 L8.513,1.384 L8.513,0.226 L7.867,1.384 L7.334,1.384 L7.334,-0.328 L7.334,-0.328 Z" id="Shape" fill="#000000" sketch:type="MSShapeGroup"></path>
            <path d="M1.546,5.927 C1.296,5.927 1.074,5.884 0.879,5.798 C0.683,5.713 0.518,5.595 0.383,5.444 C0.247,5.294 0.144,5.117 0.071,4.915 C-0.001,4.712 -0.037,4.493 -0.037,4.259 C-0.037,4.022 -0.001,3.799 0.071,3.592 C0.143,3.384 0.247,3.204 0.383,3.051 C0.518,2.898 0.683,2.778 0.879,2.69 C1.074,2.603 1.296,2.56 1.546,2.56 C1.72,2.56 1.887,2.585 2.046,2.636 C2.205,2.687 2.348,2.762 2.472,2.86 C2.597,2.958 2.7,3.078 2.782,3.222 C2.863,3.367 2.914,3.532 2.935,3.718 L2.249,3.718 C2.237,3.637 2.21,3.562 2.168,3.494 C2.126,3.427 2.073,3.367 2.01,3.316 C1.947,3.266 1.875,3.226 1.796,3.197 C1.716,3.169 1.633,3.154 1.546,3.154 C1.387,3.154 1.251,3.184 1.14,3.247 C1.028,3.309 0.938,3.391 0.869,3.494 C0.8,3.599 0.75,3.716 0.719,3.849 C0.687,3.98 0.671,4.117 0.671,4.259 C0.671,4.394 0.687,4.526 0.719,4.654 C0.75,4.781 0.8,4.896 0.869,4.998 C0.938,5.1 1.028,5.182 1.14,5.244 C1.251,5.306 1.387,5.336 1.546,5.336 C1.762,5.336 1.931,5.27 2.053,5.138 C2.175,5.006 2.249,4.831 2.277,4.616 L2.962,4.616 C2.944,4.82 2.898,5.003 2.822,5.163 C2.746,5.323 2.647,5.461 2.523,5.575 C2.4,5.689 2.256,5.776 2.091,5.837 C1.926,5.896 1.744,5.927 1.546,5.927 L1.546,5.927 Z M4.607,3.23 L3.643,3.23 L3.643,2.636 L6.28,2.636 L6.28,3.23 L5.316,3.23 L5.316,5.854 L4.607,5.854 L4.607,3.23 L4.607,3.23 Z M8.542,5.927 C8.292,5.927 8.07,5.884 7.875,5.798 C7.679,5.713 7.514,5.595 7.379,5.444 C7.243,5.294 7.14,5.117 7.067,4.915 C6.995,4.712 6.959,4.493 6.959,4.259 C6.959,4.022 6.995,3.799 7.067,3.592 C7.139,3.384 7.243,3.204 7.379,3.051 C7.514,2.898 7.679,2.778 7.875,2.69 C8.07,2.603 8.292,2.56 8.542,2.56 C8.788,2.56 9.01,2.603 9.207,2.69 C9.403,2.778 9.569,2.898 9.705,3.051 C9.84,3.204 9.943,3.384 10.016,3.592 C10.088,3.799 10.124,4.022 10.124,4.259 C10.124,4.493 10.088,4.712 10.016,4.915 C9.944,5.117 9.84,5.294 9.705,5.444 C9.569,5.594 9.403,5.713 9.207,5.798 C9.01,5.884 8.788,5.927 8.542,5.927 L8.542,5.927 Z M8.542,5.336 C8.701,5.336 8.836,5.306 8.947,5.244 C9.058,5.182 9.148,5.1 9.218,4.998 C9.288,4.896 9.337,4.781 9.369,4.653 C9.4,4.525 9.416,4.393 9.416,4.258 C9.416,4.116 9.4,3.98 9.369,3.848 C9.337,3.715 9.287,3.598 9.218,3.494 C9.149,3.39 9.059,3.308 8.947,3.247 C8.836,3.185 8.701,3.154 8.542,3.154 C8.383,3.154 8.247,3.184 8.136,3.247 C8.025,3.309 7.935,3.391 7.865,3.494 C7.796,3.598 7.746,3.716 7.715,3.848 C7.683,3.98 7.667,4.117 7.667,4.258 C7.667,4.393 7.683,4.525 7.715,4.653 C7.746,4.781 7.796,4.895 7.865,4.998 C7.934,5.101 8.024,5.182 8.136,5.244 C8.247,5.306 8.383,5.336 8.542,5.336 L8.542,5.336 Z M11.106,5.891 C10.995,5.891 10.893,5.872 10.799,5.837 L10.799,5.26 C10.812,5.266 10.828,5.27 10.851,5.274 C10.874,5.277 10.893,5.278 10.908,5.278 C11.022,5.278 11.116,5.241 11.19,5.166 C11.263,5.091 11.321,4.974 11.361,4.814 C11.402,4.655 11.429,4.449 11.445,4.196 C11.46,3.944 11.467,3.64 11.467,3.286 L11.467,2.636 L13.788,2.636 L13.788,5.855 L13.08,5.855 L13.08,3.23 L12.138,3.23 C12.129,3.603 12.117,3.952 12.1,4.276 C12.083,4.601 12.043,4.882 11.981,5.122 C11.918,5.361 11.819,5.549 11.683,5.685 C11.549,5.822 11.356,5.891 11.106,5.891 L11.106,5.891 Z M14.857,2.636 L15.56,2.636 L15.56,4.867 L15.573,4.867 L16.8,2.636 L17.594,2.636 L17.594,5.855 L16.89,5.855 L16.89,3.618 L16.877,3.618 L15.65,5.854 L14.857,5.854 L14.857,2.636 L14.857,2.636 Z M21.061,5.854 L18.667,5.854 L18.667,2.636 L19.374,2.636 L19.374,5.26 L20.637,5.26 L20.637,2.636 L21.345,2.636 L21.345,5.26 L21.7,5.26 L21.7,6.589 L21.06,6.589 L21.06,5.854 L21.061,5.854 Z M23.387,2.636 L24.113,2.636 L25.316,5.855 L24.582,5.855 L24.339,5.138 L23.135,5.138 L22.883,5.855 L22.17,5.855 L23.387,2.636 L23.387,2.636 Z M24.152,4.61 L23.747,3.428 L23.738,3.428 L23.318,4.61 L24.152,4.61 L24.152,4.61 Z" id="Shape" fill="#000000" sketch:type="MSShapeGroup"></path>
        </g>
    </g>
</svg>