<?xml version="1.0" encoding="UTF-8" standalone="no"?>
<svg viewBox="0 0 30 30" version="1.1" xmlns="http://www.w3.org/2000/svg" xmlns:xlink="http://www.w3.org/1999/xlink" xmlns:sketch="http://www.bohemiancoding.com/sketch/ns">
    <!-- Generator: Sketch 3.0.3 (7891) - http://www.bohemiancoding.com/sketch -->
    <title>vk</title>
    <desc>Created with Sketch.</desc>
    <defs></defs>
    <g id="Page-1" stroke="none" stroke-width="1" fill="none" fill-rule="evenodd" sketch:type="MSPage">
        <g id="vk" sketch:type="MSLayerGroup">
            <path d="M15.0414894,0 C26.8014894,0 30,3.11297872 30,15.1678723 C30,26.9604255 26.7178723,30 14.9585106,30 C2.93680851,30 0,26.8768085 0,15.083617 C0,3.0287234 3.02042553,0 15.0414894,0" id="Fill-1" fill="#355694" sketch:type="MSShapeGroup"></path>
            <path d="M12.4723201,24.094375 L16.4627203,24.125 L16.4473603,16.245 L18.9120004,16.23 L19.6000004,12.8325 L16.4448003,12.8325 L16.4448003,10.324375 C16.4448003,9.98625 16.5811203,9.381875 17.1379203,9.381875 L18.9760004,9.4125 L18.9139204,6.015 L15.2761602,6 C14.0313602,6 12.4742401,7.569375 12.4742401,9.1725 L12.4435201,12.814375 L10,12.86 L10,16.254375 L12.4723201,16.268125 L12.4723201,24.094375 Z" id="Fill-2" fill="#FFFFFF" sketch:type="MSShapeGroup"></path>
        </g>
    </g>
</svg>